<?xml version="1.0" standalone="no"?>
<!DOCTYPE svg PUBLIC "-//W3C//DTD SVG 20010904//EN"
 "http://www.w3.org/TR/2001/REC-SVG-20010904/DTD/svg10.dtd">
<svg version="1.0" xmlns="http://www.w3.org/2000/svg"
viewBox="0 0 100 34" width="100" height="34"
 preserveAspectRatio="xMidYMid meet">

<g transform="translate(0.000000,109.000000) scale(0.100000,-0.100000)"
fill="#000000" stroke="none">
<path d="M608 870 c-51 -39 -44 -171 9 -191 35 -13 49 -7 73 33 24 40 26 105
3 138 -31 46 -48 50 -85 20z"/>
<path d="M420 781 c-22 -42 0 -112 45 -147 39 -29 67 -26 91 11 34 52 -30 155
-96 155 -19 0 -33 -7 -40 -19z"/>
<path d="M763 752 c-12 -9 -29 -34 -38 -55 -17 -42 -9 -69 26 -87 54 -29 141
104 97 148 -17 17 -59 14 -85 -6z"/>
<path d="M340 652 c-19 -15 -22 -25 -16 -54 15 -81 102 -116 136 -55 13 24 13
30 0 54 -14 25 -73 73 -90 73 -4 0 -18 -8 -30 -18z"/>
<path d="M884 650 c-31 -12 -74 -68 -74 -95 0 -57 61 -72 109 -27 40 37 49 84
22 111 -23 23 -26 24 -57 11z"/>
<path d="M557 605 c-70 -53 -127 -139 -127 -190 0 -77 52 -108 126 -76 58 26
97 26 153 1 60 -28 85 -25 115 11 28 33 34 76 14 112 -28 55 -103 139 -138
157 -57 29 -90 25 -143 -15z"/>
</g>
</svg>
